<?xml version="1.0" encoding="utf-8"?>
<!-- Generator: Adobe Illustrator 28.0.0, SVG Export Plug-In . SVG Version: 6.00 Build 0)  -->
<svg version="1.1" id="Layer_1" xmlns="http://www.w3.org/2000/svg" xmlns:xlink="http://www.w3.org/1999/xlink" x="0px" y="0px"
	 viewBox="0 0 512 512" style="enable-background:new 0 0 512 512;" xml:space="preserve">
<style type="text/css">
	.st0{fill:#E6E6E6;}
	.st1{fill:#FF9248;}
	.st2{fill:#E6E6E6;stroke:#FFFFFF;stroke-width:0.6282;stroke-miterlimit:10;}
	.st3{fill:#FF9248;stroke:#FFFFFF;stroke-width:0.0683;stroke-miterlimit:10;}
	.st4{fill:#FFFFFF;stroke:#FFFFFF;stroke-width:0.6282;stroke-miterlimit:10;}
	.st5{fill:#FFFFFF;}
</style>
<g>
	<path class="st0" d="M408.5,79.5c0,0-167.96,148.39-159.9,178.11c8.06,29.72,178.9,169.89,178.9,169.89L408.5,79.5z"/>
	<g>
		<path class="st0" d="M281.45,402.19c15.2-13.55,35.45-27.02,58.53-31.32c-16.55-14.56-32.96-29.31-49.08-44.54
			c-3.16-2.99-6.31-6-9.45-9.04l-5.01-4.9l-5.38-5.38c-3.57-3.6-7.09-7.25-10.51-10.95c-3.44-3.7-6.76-7.47-9.9-11.32
			c-3.15-3.85-6.1-7.79-8.72-11.86c-1.33-2.03-2.52-4.11-3.69-6.22c-1.09-2.14-2.11-4.31-2.83-6.64c-0.35-1.16-0.58-2.38-0.63-3.61
			c-0.06-1.23,0.07-2.46,0.22-3.67c0.35-2.42,1.07-4.74,1.84-7.03c1.64-4.55,3.81-8.9,6.22-13.16c6.56-11.41,15-22.14,23.78-32.5
			c0.3-0.89,0.42-4.53,0.7-10.17c0.06-1.38,0.22-3,0.27-4.59c-0.08-1.46-0.15-2.99-0.23-4.56c-0.19-3.18-0.42-6.58-0.73-10.06
			c-1.26-13.92-3.54-29.11-8.54-35.48c17.64-18.42,35.4-35.82,53.35-52.9c8.97-8.53,17.99-16.96,27.07-25.32l13.67-12.5l6.9-6.23
			l7.12-6.36c3.58,6.39,6.49,13.03,8.34,20.09c1.87,7.04,2.77,14.41,2.59,22.04c-0.36,15.25-5.05,31.48-14.9,48.1
			c33.41-18.06,68.05-13.4,88.49,5.44l-6.32,5.65l-6.48,5.85l-12.94,11.83c-8.6,7.92-17.14,15.91-25.59,23.94
			c-16.87,16.06-33.45,32.31-49.05,48.62c-6.84-4.9-22.07-6.97-35.8-7.37c-3.44-0.11-6.76-0.11-9.85-0.05
			c-0.77,0.02-1.52,0.04-2.26,0.06c-0.18,0-0.37,0.02-0.54,0.01l-0.47-0.06c-0.31-0.04-0.62-0.08-0.92-0.12
			c-1.21-0.15-2.41-0.21-3.51-0.26c-4.43-0.16-7.6,0.2-7.84,0.3c-6.02,7.06-11.89,14.28-16.99,22.05c-1.91,2.95-3.71,5.99-5.15,9.2
			c-0.68,1.62-1.32,3.27-1.67,5c-0.35,1.72-0.38,3.55,0.3,5.19c1.31,3.28,3.4,6.16,5.5,8.97c2.13,2.8,4.4,5.49,6.73,8.13
			c4.66,5.27,9.55,10.33,14.52,15.32l3.74,3.72l4.21,4.12c3.04,2.95,6.11,5.88,9.2,8.81c15.65,14.79,31.75,29.26,48.01,43.57
			c1.49-23.22,13.04-46.46,24.95-60.79c1.92,44.81,15.51,93.72,44.8,138.32c-24.47-10.43-49.15-16.68-73.65-20.32
			C329.36,403.52,305.07,402.46,281.45,402.19z"/>
	</g>
</g>
<g>
	<path class="st1" d="M506,256c0,65.27-25.01,124.7-65.97,169.22c-0.36,0.4-0.73,0.79-1.1,1.19C393.29,475.37,328.22,506,256,506
		c-8.27,0-16.44-0.4-24.5-1.19c-3.35-0.32-6.69-0.71-10-1.18c-8.13-1.11-16.14-2.63-24-4.52c-3.36-0.8-6.7-1.67-10-2.61
		C82.73,466.71,6,370.32,6,256S82.73,45.29,187.5,15.5c3.3-0.94,6.64-1.81,10-2.61c7.86-1.89,15.87-3.41,24-4.52
		c3.31-0.47,6.65-0.86,10-1.18C239.56,6.4,247.73,6,256,6c43.26,0,83.94,10.98,119.43,30.31c3.37,1.84,6.69,3.75,9.96,5.73
		C457.68,85.86,506,165.29,506,256z"/>
</g>
<path class="st1" d="M300.81,246.28L300.81,246.28z"/>
<path class="st2" d="M231.5,5.5v499.31c-3.35-0.32-6.69-0.71-10-1.18c-8.13-1.11-16.14-2.63-24-4.52V5.5H231.5"/>
<path class="st3" d="M231.5,511.82v0.08c-3.35,0-6.69,0.01-10,0.01c-8.13,0.01-16.14,0.03-24,0.05c-3.36,0.01-6.7,0.02-10,0.04
	v-0.18H231.5z"/>
<path class="st4" d="M221.5,5.5v498.13c-8.13-1.11-16.14-2.63-24-4.52c-3.36-0.8-6.7-1.67-10-2.61V5.5H221.5z"/>
<g>
	<path class="st0" d="M408.5,79.5c0,0-167.96,148.39-159.9,178.11c8.06,29.72,178.9,169.89,178.9,169.89L408.5,79.5z"/>
	<g>
		<path class="st0" d="M281.45,402.19c15.2-13.55,35.45-27.02,58.53-31.32c-16.55-14.56-32.96-29.31-49.08-44.54
			c-3.16-2.99-6.31-6-9.45-9.04l-5.01-4.9l-5.38-5.38c-3.57-3.6-7.09-7.25-10.51-10.95c-3.44-3.7-6.76-7.47-9.9-11.32
			c-3.15-3.85-6.1-7.79-8.72-11.86c-1.33-2.03-2.52-4.11-3.69-6.22c-1.09-2.14-2.11-4.31-2.83-6.64c-0.35-1.16-0.58-2.38-0.63-3.61
			c-0.06-1.23,0.07-2.46,0.22-3.67c0.35-2.42,1.07-4.74,1.84-7.03c1.64-4.55,3.81-8.9,6.22-13.16c6.56-11.41,15-22.14,23.78-32.5
			c0.3-0.89,0.42-4.53,0.7-10.17c0.06-1.38,0.22-3,0.27-4.59c-0.08-1.46-0.15-2.99-0.23-4.56c-0.19-3.18-0.42-6.58-0.73-10.06
			c-1.26-13.92-3.54-29.11-8.54-35.48c17.64-18.42,35.4-35.82,53.35-52.9c8.97-8.53,17.99-16.96,27.07-25.32l13.67-12.5l6.9-6.23
			l7.12-6.36c3.58,6.39,6.49,13.03,8.34,20.09c1.87,7.04,2.77,14.41,2.59,22.04c-0.36,15.25-5.05,31.48-14.9,48.1
			c33.41-18.06,68.05-13.4,88.49,5.44l-6.32,5.65l-6.48,5.85l-12.94,11.83c-8.6,7.92-17.14,15.91-25.59,23.94
			c-16.87,16.06-33.45,32.31-49.05,48.62c-6.84-4.9-22.07-6.97-35.8-7.37c-3.44-0.11-6.76-0.11-9.85-0.05
			c-0.77,0.02-1.52,0.04-2.26,0.06c-0.18,0-0.37,0.02-0.54,0.01l-0.47-0.06c-0.31-0.04-0.62-0.08-0.92-0.12
			c-1.21-0.15-2.41-0.21-3.51-0.26c-4.43-0.16-7.6,0.2-7.84,0.3c-6.02,7.06-11.89,14.28-16.99,22.05c-1.91,2.95-3.71,5.99-5.15,9.2
			c-0.68,1.62-1.32,3.27-1.67,5c-0.35,1.72-0.38,3.55,0.3,5.19c1.31,3.28,3.4,6.16,5.5,8.97c2.13,2.8,4.4,5.49,6.73,8.13
			c4.66,5.27,9.55,10.33,14.52,15.32l3.74,3.72l4.21,4.12c3.04,2.95,6.11,5.88,9.2,8.81c15.65,14.79,31.75,29.26,48.01,43.57
			c1.49-23.22,13.04-46.46,24.95-60.79c1.92,44.81,15.51,93.72,44.8,138.32c-24.47-10.43-49.15-16.68-73.65-20.32
			C329.36,403.52,305.07,402.46,281.45,402.19z"/>
	</g>
</g>
<g>
	<path class="st1" d="M408.5,79.5c0,0-167.96,148.39-159.9,178.11c8.06,29.72,178.9,169.89,178.9,169.89L408.5,79.5z"/>
	<g>
		<path class="st5" d="M295.45,402.19c15.2-13.55,35.45-27.02,58.53-31.32c-16.55-14.56-32.96-29.31-49.08-44.54
			c-3.16-2.99-6.31-6-9.45-9.04l-5.01-4.9l-5.38-5.38c-3.57-3.6-7.09-7.25-10.51-10.95c-3.44-3.7-6.76-7.47-9.9-11.32
			c-3.15-3.85-6.1-7.79-8.72-11.86c-1.33-2.03-2.52-4.11-3.69-6.22c-1.09-2.14-2.11-4.31-2.83-6.64c-0.35-1.16-0.58-2.38-0.63-3.61
			c-0.06-1.23,0.07-2.46,0.22-3.67c0.35-2.42,1.07-4.74,1.84-7.03c1.64-4.55,3.81-8.9,6.22-13.16c6.56-11.41,15-22.14,23.78-32.5
			c0.3-0.89,0.42-4.53,0.7-10.17c0.06-1.38,0.22-3,0.27-4.59c-0.08-1.46-0.15-2.99-0.23-4.56c-0.19-3.18-0.42-6.58-0.73-10.06
			c-1.26-13.92-3.54-29.11-8.54-35.48c17.64-18.42,35.4-35.82,53.35-52.9c8.97-8.53,17.99-16.96,27.07-25.32l13.67-12.5l6.9-6.23
			l7.12-6.36c3.58,6.39,6.49,13.03,8.34,20.09c1.87,7.04,2.77,14.41,2.59,22.04c-0.36,15.25-5.05,31.48-14.9,48.1
			c33.41-18.06,68.05-13.4,88.49,5.44l-6.32,5.65l-6.48,5.85l-12.94,11.83c-8.6,7.92-17.14,15.91-25.59,23.94
			c-16.87,16.06-33.45,32.31-49.05,48.62c-6.84-4.9-22.07-6.97-35.8-7.37c-3.44-0.11-6.76-0.11-9.85-0.05
			c-0.77,0.02-1.52,0.04-2.26,0.06c-0.18,0-0.37,0.02-0.54,0.01l-0.47-0.06c-0.31-0.04-0.62-0.08-0.92-0.12
			c-1.21-0.15-2.41-0.21-3.51-0.26c-4.43-0.16-7.6,0.2-7.84,0.3c-6.02,7.06-11.89,14.28-16.99,22.05c-1.91,2.95-3.71,5.99-5.15,9.2
			c-0.68,1.62-1.32,3.27-1.67,5c-0.35,1.72-0.38,3.55,0.3,5.19c1.31,3.28,3.4,6.16,5.5,8.97c2.13,2.8,4.4,5.49,6.73,8.13
			c4.66,5.27,9.55,10.33,14.52,15.32l3.74,3.72l4.21,4.12c3.04,2.95,6.11,5.88,9.2,8.81c15.65,14.79,31.75,29.26,48.01,43.57
			c1.49-23.22,13.04-46.46,24.95-60.79c1.92,44.81,15.51,93.72,44.8,138.32c-24.47-10.43-49.15-16.68-73.65-20.32
			C343.36,403.52,319.07,402.46,295.45,402.19z"/>
	</g>
</g>
</svg>
