<?xml version="1.0" encoding="utf-8"?>
<!-- Generator: Adobe Illustrator 28.0.0, SVG Export Plug-In . SVG Version: 6.00 Build 0)  -->
<svg version="1.1" id="Layer_1" xmlns="http://www.w3.org/2000/svg" xmlns:xlink="http://www.w3.org/1999/xlink" x="0px" y="0px"
	 viewBox="0 0 512 512" style="enable-background:new 0 0 512 512;" xml:space="preserve">
<style type="text/css">
	.st0{fill:#E6E6E6;}
	.st1{fill:#FF9248;}
	.st2{fill:#E6E6E6;stroke:#FFFFFF;stroke-width:0.6282;stroke-miterlimit:10;}
	.st3{fill:#FF9248;stroke:#FFFFFF;stroke-width:6.830000e-02;stroke-miterlimit:10;}
	.st4{fill:#FFFFFF;stroke:#FFFFFF;stroke-width:0.6282;stroke-miterlimit:10;}
	.st5{display:none;fill:#E6E6E6;}
	.st6{fill:#FFFFFF;}
</style>
<g>
	<path class="st0" d="M408.5,79.5c0,0-168,148.4-159.9,178.1c8.1,29.7,178.9,169.9,178.9,169.9L408.5,79.5z"/>
	<g>
		<path class="st0" d="M281.5,402.2c15.2-13.5,35.5-27,58.5-31.3c-16.5-14.6-33-29.3-49.1-44.5c-3.2-3-6.3-6-9.5-9l-5-4.9l-5.4-5.4
			c-3.6-3.6-7.1-7.2-10.5-11c-3.4-3.7-6.8-7.5-9.9-11.3c-3.1-3.9-6.1-7.8-8.7-11.9c-1.3-2-2.5-4.1-3.7-6.2c-1.1-2.1-2.1-4.3-2.8-6.6
			c-0.4-1.2-0.6-2.4-0.6-3.6c-0.1-1.2,0.1-2.5,0.2-3.7c0.4-2.4,1.1-4.7,1.8-7c1.6-4.6,3.8-8.9,6.2-13.2c6.6-11.4,15-22.1,23.8-32.5
			c0.3-0.9,0.4-4.5,0.7-10.2c0.1-1.4,0.2-3,0.3-4.6c-0.1-1.5-0.1-3-0.2-4.6c-0.2-3.2-0.4-6.6-0.7-10.1c-1.3-13.9-3.5-29.1-8.5-35.5
			c17.6-18.4,35.4-35.8,53.4-52.9c9-8.5,18-17,27.1-25.3l13.7-12.5l6.9-6.2l7.1-6.4c3.6,6.4,6.5,13,8.3,20.1c1.9,7,2.8,14.4,2.6,22
			c-0.4,15.2-5,31.5-14.9,48.1c33.4-18.1,68.1-13.4,88.5,5.4l-6.3,5.6l-6.5,5.9l-12.9,11.8c-8.6,7.9-17.1,15.9-25.6,23.9
			c-16.9,16.1-33.5,32.3-49,48.6c-6.8-4.9-22.1-7-35.8-7.4c-3.4-0.1-6.8-0.1-9.9-0.1c-0.8,0-1.5,0-2.3,0.1c-0.2,0-0.4,0-0.5,0
			l-0.5-0.1c-0.3,0-0.6-0.1-0.9-0.1c-1.2-0.1-2.4-0.2-3.5-0.3c-4.4-0.2-7.6,0.2-7.8,0.3c-6,7.1-11.9,14.3-17,22.1
			c-1.9,2.9-3.7,6-5.1,9.2c-0.7,1.6-1.3,3.3-1.7,5c-0.4,1.7-0.4,3.6,0.3,5.2c1.3,3.3,3.4,6.2,5.5,9c2.1,2.8,4.4,5.5,6.7,8.1
			c4.7,5.3,9.5,10.3,14.5,15.3l3.7,3.7l4.2,4.1c3,3,6.1,5.9,9.2,8.8c15.6,14.8,31.8,29.3,48,43.6c1.5-23.2,13-46.5,25-60.8
			c1.9,44.8,15.5,93.7,44.8,138.3c-24.5-10.4-49.1-16.7-73.6-20.3C329.4,403.5,305.1,402.5,281.5,402.2z"/>
	</g>
</g>
<g>
	<path class="st1" d="M506,256c0,65.3-25,124.7-66,169.2c-0.4,0.4-0.7,0.8-1.1,1.2C393.3,475.4,328.2,506,256,506
		c-8.3,0-16.4-0.4-24.5-1.2c-3.4-0.3-6.7-0.7-10-1.2c-8.1-1.1-16.1-2.6-24-4.5c-3.4-0.8-6.7-1.7-10-2.6C82.7,466.7,6,370.3,6,256
		S82.7,45.3,187.5,15.5c3.3-0.9,6.6-1.8,10-2.6c7.9-1.9,15.9-3.4,24-4.5c3.3-0.5,6.6-0.9,10-1.2C239.6,6.4,247.7,6,256,6
		c43.3,0,83.9,11,119.4,30.3c3.4,1.8,6.7,3.8,10,5.7C457.7,85.9,506,165.3,506,256z"/>
</g>
<path class="st1" d="M300.8,246.3L300.8,246.3z"/>
<path class="st2" d="M231.5,5.5v499.3c-3.4-0.3-6.7-0.7-10-1.2c-8.1-1.1-16.1-2.6-24-4.5V5.5H231.5"/>
<path class="st3" d="M231.5,511.8L231.5,511.8c-3.4,0.1-6.7,0.1-10,0.1c-8.1,0-16.1,0-24,0c-3.4,0-6.7,0-10,0v-0.2H231.5z"/>
<path class="st4" d="M221.5,5.5v498.1c-8.1-1.1-16.1-2.6-24-4.5c-3.4-0.8-6.7-1.7-10-2.6V5.5H221.5z"/>
<g>
	<path class="st5" d="M408.5,79.5c0,0-168,148.4-159.9,178.1c8.1,29.7,178.9,169.9,178.9,169.9L408.5,79.5z"/>
	<g>
		<path class="st0" d="M248.6,257.6c-5.3-19.5,65.2-90.1,114.4-136.4c9.5-16.3,14-32.2,14.4-47.2c0.2-7.6-0.7-15-2.6-22
			c-1.9-7.1-4.8-13.7-8.3-20.1l-7.1,6.4l-6.9,6.2L338.7,57c-9.1,8.4-18.1,16.8-27.1,25.3c-18,17.1-35.7,34.5-53.3,52.9
			c5,6.4,7.3,21.6,8.5,35.5c0.3,3.5,0.5,6.9,0.7,10.1c0.1,1.6,0.2,3.1,0.2,4.6c0,1.6-0.2,3.2-0.3,4.6c-0.3,5.6-0.4,9.3-0.7,10.2
			c-8.8,10.4-17.2,21.1-23.8,32.5c-2.4,4.3-4.6,8.6-6.2,13.2c-0.8,2.3-1.5,4.6-1.8,7c-0.2,1.2-0.3,2.4-0.2,3.7
			c0.1,1.2,0.3,2.4,0.6,3.6c0.7,2.3,1.7,4.5,2.8,6.6c1.2,2.1,2.4,4.2,3.7,6.2c2.6,4.1,5.6,8,8.7,11.9c3.1,3.9,6.5,7.6,9.9,11.3
			c3.4,3.7,6.9,7.4,10.5,11l5.4,5.4l5,4.9c3.1,3,6.3,6,9.5,9c16.1,15.2,32.5,30,49.1,44.5c-23.1,4.3-43.3,17.8-58.5,31.3
			c23.6,0.3,47.9,1.3,72.4,5c24.5,3.6,49.2,9.9,73.7,20.3c0,0,0-0.1-0.1-0.1C424.6,425.1,256.6,287.1,248.6,257.6z"/>
		<path class="st0" d="M410.2,110.9l2.8,51.3c4-3.8,8.1-7.6,12.2-11.3l12.9-11.8l6.5-5.9l6.3-5.6
			C440.4,117.9,426.1,111.9,410.2,110.9z"/>
	</g>
</g>
<g>
	<g>
		<path class="st6" d="M295.5,402.2c15.2-13.5,35.5-27,58.5-31.3c-16.5-14.6-33-29.3-49.1-44.5c-3.2-3-6.3-6-9.5-9l-5-4.9l-5.4-5.4
			c-3.6-3.6-7.1-7.2-10.5-11c-3.4-3.7-6.8-7.5-9.9-11.3c-3.1-3.9-6.1-7.8-8.7-11.9c-1.3-2-2.5-4.1-3.7-6.2c-1.1-2.1-2.1-4.3-2.8-6.6
			c-0.4-1.2-0.6-2.4-0.6-3.6c-0.1-1.2,0.1-2.5,0.2-3.7c0.4-2.4,1.1-4.7,1.8-7c1.6-4.6,3.8-8.9,6.2-13.2c6.6-11.4,15-22.1,23.8-32.5
			c0.3-0.9,0.4-4.5,0.7-10.2c0.1-1.4,0.2-3,0.3-4.6c-0.1-1.5-0.1-3-0.2-4.6c-0.2-3.2-0.4-6.6-0.7-10.1c-1.3-13.9-3.5-29.1-8.5-35.5
			c17.6-18.4,35.4-35.8,53.4-52.9c9-8.5,18-17,27.1-25.3l13.7-12.5l6.9-6.2l7.1-6.4c3.6,6.4,6.5,13,8.3,20.1c1.9,7,2.8,14.4,2.6,22
			c-0.4,15.2-5,31.5-14.9,48.1c33.4-18.1,68-13.4,88.5,5.4l-6.3,5.6l-6.5,5.9l-12.9,11.8c-8.6,7.9-17.1,15.9-25.6,23.9
			c-16.9,16.1-33.5,32.3-49,48.6c-6.8-4.9-22.1-7-35.8-7.4c-3.4-0.1-6.8-0.1-9.9-0.1c-0.8,0-1.5,0-2.3,0.1c-0.2,0-0.4,0-0.5,0
			l-0.5-0.1c-0.3,0-0.6-0.1-0.9-0.1c-1.2-0.1-2.4-0.2-3.5-0.3c-4.4-0.2-7.6,0.2-7.8,0.3c-6,7.1-11.9,14.3-17,22.1
			c-1.9,2.9-3.7,6-5.1,9.2c-0.7,1.6-1.3,3.3-1.7,5c-0.4,1.7-0.4,3.6,0.3,5.2c1.3,3.3,3.4,6.2,5.5,9c2.1,2.8,4.4,5.5,6.7,8.1
			c4.7,5.3,9.5,10.3,14.5,15.3l3.7,3.7l4.2,4.1c3,3,6.1,5.9,9.2,8.8c15.6,14.8,31.8,29.3,48,43.6c1.5-23.2,13-46.5,25-60.8
			c1.9,44.8,15.5,93.7,44.8,138.3c-24.5-10.4-49.1-16.7-73.6-20.3C343.4,403.5,319.1,402.5,295.5,402.2z"/>
	</g>
</g>
</svg>
